# xmcd
#
# Track frame offsets:
#	150
#	30302
#	54781
#	78284
#	101955
#	124161
#	148326
#	190000
#	211308
#	231723
#
# Disc length: 3385 seconds
#
# Revision: 2
# Processed by: cddbd v1.5.2PL0 Copyright (c) Steve Scherf et al.
# Submitted via: EasyCDDAExtractor 16.0.9.1
#
DISCID=8a0d370a
DTITLE=Various Artist - Giac Mo Canh Co [TNCD305]
DYEAR=2003
DGENRE=Vietnamese
TTITLE0=Truong Vu, Manh Quynh and Manh Dinh - Lien khuc Ly Cafe Cuoi Cung
TTITLE1=Nhu Quynh and Truong Vu - Lien khuc Duy Khanh
TTITLE2=The Son and Tam Doan - Thoang Giac Mo Qua
TTITLE3=Nhu Quynh and Phi Nhung - Giac Mo Canh Co
TTITLE4=Quang Le - Suong Trang Mien Que Ngoai
TTITLE5=Phuong Diem Hanh - Tinh Thoang Mong Manh
TTITLE6=Manh Quynh and Phi Nhung - Tan Co Thanh Pho Buon
TTITLE7=Tam Doan - Xin Diu Nhau Den Tinh Yeu
TTITLE8=Phuong Diem Hanh and Manh Dinh - Khi Minh Xa Nhau
TTITLE9=Dang Truong Phat - Nho Ve Em
EXTD=rhsdhd
EXTT0=
EXTT1=
EXTT2=
EXTT3=
EXTT4=
EXTT5=
EXTT6=
EXTT7=
EXTT8=
EXTT9=
PLAYORDER=
